<svg width="149" height="139" viewBox="0 0 149 139" fill="none" xmlns="http://www.w3.org/2000/svg">
<g id="Frame" clip-path="url(#clip0_2800_1518)">
<path id="Vector" d="M21.8202 128.548C50.9159 142.476 98.0872 142.48 127.183 128.548C156.279 114.617 156.274 92.0373 127.183 78.1097C98.0915 64.1822 50.9159 64.1822 21.8202 78.1097C-7.27551 92.0373 -7.27129 114.621 21.8202 128.548Z" fill="#1F67FF"/>
<path id="Vector_2" d="M127.082 118.264C132.44 118.264 136.784 116.185 136.784 113.62C136.784 111.056 132.44 108.977 127.082 108.977C121.723 108.977 117.379 111.056 117.379 113.62C117.379 116.185 121.723 118.264 127.082 118.264Z" fill="#0052FE"/>
<path id="Vector_3" d="M19.6094 114.28L23.0421 112.291C24.9587 110.72 26.4174 108.659 27.2644 106.324C28.3242 103.389 28.1764 101.159 27.4164 100.039C26.4832 98.6607 24.0639 98.9024 23.9668 101.803C23.7641 107.52 22.1047 111.486 19.6094 114.28Z" fill="#27DEBF"/>
<path id="Vector_4" d="M19.6094 114.28L23.0421 112.291C24.9587 110.72 26.4174 108.659 27.2644 106.324C28.3242 103.389 28.1764 101.159 27.4164 100.039C26.4832 98.6607 24.0639 98.9024 23.9668 101.803C23.7641 107.52 22.1047 111.486 19.6094 114.28Z" fill="url(#paint0_linear_2800_1518)"/>
<path id="Vector_5" d="M19.6109 114.488C19.5662 114.488 19.5228 114.473 19.487 114.446C19.4512 114.419 19.4248 114.382 19.4117 114.339C19.3985 114.296 19.3993 114.25 19.4138 114.207C19.4284 114.165 19.456 114.128 19.4926 114.102C27.4305 108.589 25.8936 100.9 25.8767 100.824C25.8709 100.796 25.8706 100.767 25.8758 100.739C25.8811 100.711 25.8917 100.685 25.9072 100.661C25.9227 100.637 25.9427 100.616 25.9661 100.6C25.9895 100.584 26.0158 100.573 26.0435 100.567C26.0712 100.561 26.0998 100.561 26.1277 100.566C26.1555 100.571 26.1821 100.582 26.2058 100.598C26.2295 100.613 26.2499 100.633 26.2659 100.657C26.2819 100.68 26.2931 100.707 26.299 100.735C26.299 100.815 27.9203 108.767 19.746 114.45C19.7063 114.477 19.6589 114.491 19.6109 114.488Z" fill="white"/>
<path id="Vector_6" d="M12.7336 118.27C12.7336 118.27 11.5387 117.295 11.8258 115.971C12.1129 114.648 12.8856 113.698 11.564 111.993C10.2424 110.288 9.87509 108.015 11.4542 106.785C12.6576 105.831 14.5365 107.18 15.2121 104.665C15.7103 102.824 15.5414 98.7485 17.8763 97.3913C20.2112 96.0342 21.6764 98.0784 21.309 100.844C20.9881 103.316 20.5321 105.695 20.8868 106.357C21.5708 107.629 22.7404 107.455 22.6855 109.779C22.639 111.942 20.5997 113.732 20.5997 113.732L12.7336 118.27Z" fill="url(#paint1_linear_2800_1518)"/>
<path id="Vector_7" d="M16.6575 116.196C16.6059 116.195 16.5562 116.176 16.5175 116.142C16.4787 116.108 16.4535 116.061 16.4464 116.009C15.8426 110.984 17.2909 102.307 18.4731 99.728C18.4831 99.6994 18.499 99.6733 18.5199 99.6514C18.5407 99.6295 18.566 99.6124 18.594 99.6011C18.622 99.5899 18.6521 99.5848 18.6822 99.5862C18.7123 99.5876 18.7418 99.5955 18.7687 99.6093C18.7939 99.6207 18.8166 99.637 18.8354 99.6574C18.8542 99.6777 18.8687 99.7016 18.8782 99.7277C18.8876 99.7538 18.8918 99.7816 18.8904 99.8093C18.889 99.837 18.882 99.8642 18.87 99.8892C17.7004 102.434 16.3029 111.136 16.8813 115.942C16.8873 115.997 16.8711 116.053 16.8363 116.097C16.8015 116.14 16.7509 116.168 16.6955 116.175L16.6575 116.196Z" fill="white"/>
<path id="Vector_8" d="M16.5396 112.282C16.5073 112.284 16.4752 112.276 16.4467 112.261C14.9816 111.544 14.0527 108.987 14.0147 108.868C14.0043 108.842 13.9994 108.813 14.0001 108.785C14.0008 108.757 14.0071 108.729 14.0187 108.703C14.0303 108.677 14.047 108.654 14.0677 108.635C14.0884 108.615 14.1128 108.6 14.1393 108.591C14.1658 108.581 14.194 108.577 14.2222 108.578C14.2504 108.58 14.278 108.587 14.3034 108.599C14.3288 108.612 14.3515 108.629 14.37 108.651C14.3886 108.672 14.4027 108.697 14.4116 108.724C14.4116 108.749 15.3194 111.226 16.6325 111.866C16.6756 111.887 16.7103 111.922 16.7309 111.966C16.7516 112.009 16.757 112.058 16.7462 112.105C16.7354 112.152 16.709 112.194 16.6715 112.223C16.634 112.253 16.5875 112.269 16.5396 112.269V112.282Z" fill="white"/>
<path id="Vector_9" d="M16.5184 113.977C16.4761 113.977 16.4348 113.964 16.4001 113.939C16.3654 113.915 16.3389 113.881 16.3242 113.841C16.3032 113.789 16.3034 113.731 16.3247 113.68C16.3461 113.628 16.3869 113.587 16.4382 113.565C18.904 112.573 20.4409 109.625 20.4578 109.591C20.4836 109.541 20.5281 109.504 20.5815 109.487C20.635 109.469 20.693 109.474 20.7428 109.5C20.7927 109.526 20.8302 109.571 20.8472 109.625C20.8643 109.678 20.8594 109.736 20.8336 109.787C20.7661 109.914 19.208 112.908 16.6113 113.96C16.5824 113.974 16.5503 113.979 16.5184 113.977Z" fill="white"/>
<path id="Vector_10" d="M102.707 91.1639C102.707 91.1639 100.862 88.1613 100.681 84.8999C100.499 81.6385 101.213 80.2814 102.192 79.8912C103.172 79.5011 103.248 80.7013 103.75 81.4095C104.253 82.1178 105.279 81.7149 105.659 79.5053C106.039 77.2957 107.424 73.5678 110.303 72.8426C113.47 72.0538 111.773 75.7859 110.975 77.2406C110.177 78.6953 109.56 80.6801 110.084 81.2187C110.607 81.7573 111.422 80.7607 112.195 81.6852C113.136 82.8006 110.21 86.8168 108.53 87.788L102.707 91.1639Z" fill="url(#paint2_linear_2800_1518)"/>
<path id="Vector_11" d="M105.238 89.9046C105.21 89.9035 105.183 89.8969 105.158 89.8853C105.133 89.8736 105.11 89.857 105.091 89.8365C105.072 89.8161 105.058 89.7921 105.048 89.7659C105.039 89.7397 105.034 89.7119 105.035 89.6841C105.321 84.4377 106.95 79.3543 109.764 74.9253C109.78 74.9022 109.801 74.8826 109.824 74.8677C109.848 74.8528 109.875 74.8428 109.902 74.8385C109.93 74.8341 109.958 74.8354 109.985 74.8423C110.012 74.8492 110.038 74.8616 110.06 74.8786C110.104 74.9116 110.134 74.9607 110.142 75.0154C110.151 75.0701 110.138 75.126 110.106 75.1712C107.342 79.5355 105.743 84.5406 105.462 89.7053C105.46 89.7331 105.453 89.7604 105.441 89.7855C105.429 89.8106 105.412 89.8331 105.391 89.8516C105.37 89.8701 105.346 89.8843 105.32 89.8934C105.294 89.9025 105.266 89.9063 105.238 89.9046Z" fill="white"/>
<path id="Vector_12" d="M105.479 87.3945C105.444 87.3942 105.409 87.3855 105.378 87.3691C104.196 86.7117 103.541 84.7609 103.516 84.6803C103.507 84.6538 103.503 84.6258 103.504 84.5978C103.506 84.5698 103.513 84.5424 103.525 84.5171C103.537 84.4919 103.554 84.4693 103.575 84.4507C103.596 84.4321 103.62 84.4179 103.647 84.4089C103.7 84.3915 103.758 84.396 103.808 84.4214C103.858 84.4469 103.896 84.4912 103.913 84.5446C103.913 84.5446 104.546 86.4233 105.602 86.9959C105.65 87.0243 105.685 87.0701 105.7 87.1239C105.715 87.1776 105.708 87.2351 105.682 87.2843C105.663 87.3208 105.633 87.3507 105.597 87.3704C105.561 87.39 105.52 87.3984 105.479 87.3945Z" fill="white"/>
<path id="Vector_13" d="M105.686 86.114C105.639 86.1135 105.594 86.0973 105.557 86.0682C105.52 86.039 105.494 85.9984 105.483 85.9528C105.476 85.9261 105.475 85.8982 105.479 85.8709C105.483 85.8435 105.492 85.8172 105.506 85.7935C105.52 85.7698 105.539 85.7492 105.561 85.7329C105.583 85.7165 105.608 85.7048 105.635 85.6983C108.684 84.9222 109.739 83.3191 109.748 83.3022C109.763 83.2785 109.782 83.258 109.805 83.2419C109.828 83.2258 109.854 83.2144 109.881 83.2082C109.908 83.2021 109.936 83.2015 109.964 83.2063C109.991 83.2112 110.018 83.2214 110.041 83.2364C110.065 83.2515 110.085 83.271 110.101 83.294C110.117 83.3169 110.129 83.3428 110.135 83.3702C110.141 83.3976 110.141 83.4259 110.137 83.4535C110.132 83.4811 110.122 83.5075 110.107 83.5312C110.06 83.6033 108.962 85.287 105.741 86.1097L105.686 86.114Z" fill="white"/>
<path id="Vector_14" d="M56.767 84.5717C56.767 84.5717 52.7178 83.5792 52.5067 75.9623C52.2829 67.7432 53.499 58.15 48.7067 57.3739C43.9144 56.5978 41.2544 62.4631 41.3135 69.3124C41.3684 75.3092 43.7751 88.3292 56.7501 90.8823L56.767 84.5717Z" fill="#27DEBF"/>
<path id="Vector_15" d="M56.767 84.5717C56.767 84.5717 52.7178 83.5792 52.5067 75.9623C52.2829 67.7432 53.499 58.15 48.7067 57.3739C43.9144 56.5978 41.2544 62.4631 41.3135 69.3124C41.3684 75.3092 43.7751 88.3292 56.7501 90.8823L56.767 84.5717Z" fill="url(#paint3_linear_2800_1518)"/>
<path id="Vector_16" d="M56.7681 90.0989H56.7301C53.8125 89.5645 51.4353 87.9487 49.6662 85.3022C44.4221 77.4436 46.073 62.7696 46.6177 60.208C46.6299 60.1535 46.6626 60.1058 46.7091 60.0749C46.7555 60.0441 46.8121 60.0325 46.8668 60.0426C46.9215 60.0558 46.969 60.0896 46.9997 60.1369C47.0303 60.1842 47.0417 60.2416 47.0315 60.2971C46.4952 62.8417 44.8528 77.3291 50.0166 85.0648C50.7683 86.2644 51.76 87.294 52.9287 88.0883C54.0975 88.8827 55.4178 89.4243 56.8061 89.679C56.8336 89.6841 56.8599 89.6946 56.8833 89.71C56.9068 89.7254 56.927 89.7453 56.9427 89.7686C56.9584 89.7919 56.9693 89.8181 56.9749 89.8456C56.9804 89.8732 56.9804 89.9016 56.9749 89.9292C56.966 89.9775 56.9403 90.021 56.9024 90.0521C56.8645 90.0831 56.8169 90.0997 56.7681 90.0989Z" fill="white"/>
<path id="Vector_17" d="M56.77 109.646C52.5858 110.215 45.7921 110.206 41.8696 107.102C37.9471 103.997 38.7662 101.326 40.2736 100.21C41.7809 99.0947 43.0899 97.8224 40.4974 95.3457C37.9049 92.8689 33.7417 88.8908 32.3906 82.9237C31.0395 76.9565 31.7066 73.2244 34.3582 71.9818C36.9296 70.7773 37.6093 72.6943 39.1843 76.6469C40.7592 80.5996 44.3016 77.211 47.3332 78.4451C50.3648 79.6793 50.2424 82.1221 50.4324 84.2214C50.6224 86.3207 51.6231 86.9018 53.3416 86.9018C55.06 86.9018 56.77 87.8942 56.77 89.8705V109.646Z" fill="url(#paint4_linear_2800_1518)"/>
<path id="Vector_18" d="M56.7679 102.722C56.7499 102.727 56.7311 102.727 56.713 102.722C56.5315 102.672 52.2037 101.408 45.8998 95.5933C39.1864 89.4014 36.0197 80.1135 35.9859 80.0202C35.9697 79.9668 35.9747 79.9091 35.9999 79.8593C36.0251 79.8095 36.0685 79.7714 36.121 79.753C36.1736 79.7354 36.2311 79.7394 36.2808 79.764C36.3306 79.7886 36.3688 79.8319 36.387 79.8845C36.4166 79.9778 39.5537 89.1639 46.1869 95.2795C52.4021 101.018 56.7806 102.303 56.8271 102.315C56.8537 102.323 56.8785 102.336 56.9001 102.354C56.9217 102.371 56.9397 102.393 56.953 102.417C56.9664 102.441 56.9748 102.468 56.9778 102.496C56.9808 102.524 56.9784 102.552 56.9706 102.578C56.9569 102.621 56.9298 102.658 56.8932 102.684C56.8567 102.71 56.8127 102.724 56.7679 102.722Z" fill="white"/>
<path id="Vector_19" d="M47.6605 97.0678C47.6181 97.0684 47.5765 97.0557 47.5417 97.0313C47.5068 97.007 47.4804 96.9722 47.4663 96.932C46.111 93.4374 45.8027 85.9605 45.7774 85.6424C45.7762 85.5864 45.7967 85.5322 45.8344 85.4911C45.8722 85.45 45.9244 85.4252 45.9801 85.4219C46.0352 85.4227 46.0881 85.4439 46.1286 85.4815C46.1691 85.519 46.1944 85.5703 46.1996 85.6254C46.1996 85.7018 46.5163 93.3484 47.8463 96.7794C47.8565 96.8055 47.8614 96.8335 47.8607 96.8615C47.8601 96.8896 47.8538 96.9173 47.8425 96.9429C47.8311 96.9686 47.8147 96.9917 47.7944 97.0109C47.774 97.0302 47.75 97.0452 47.7239 97.055C47.7035 97.0624 47.6821 97.0667 47.6605 97.0678Z" fill="white"/>
<path id="Vector_20" d="M47.6261 102.09C47.2368 102.093 46.8477 102.073 46.4607 102.031C46.433 102.027 46.4062 102.018 46.3819 102.005C46.3575 101.991 46.3361 101.973 46.3189 101.95C46.3016 101.928 46.2889 101.903 46.2813 101.876C46.2738 101.849 46.2716 101.821 46.275 101.793C46.2783 101.765 46.287 101.738 46.3007 101.714C46.3144 101.689 46.3327 101.668 46.3547 101.651C46.3767 101.633 46.4018 101.62 46.4287 101.613C46.4556 101.605 46.4837 101.603 46.5114 101.606C46.5494 101.606 50.4803 102.056 52.2833 100.211C52.3029 100.191 52.3262 100.176 52.352 100.165C52.3777 100.154 52.4053 100.148 52.4331 100.148C52.461 100.148 52.4886 100.154 52.5143 100.165C52.5401 100.176 52.5634 100.191 52.583 100.211C52.6027 100.231 52.6183 100.254 52.629 100.279C52.6396 100.305 52.6451 100.332 52.6451 100.36C52.6451 100.387 52.6396 100.415 52.629 100.44C52.6183 100.466 52.6027 100.489 52.583 100.508C51.2784 101.861 49.0025 102.09 47.6261 102.09Z" fill="white"/>
<path id="Vector_21" d="M44.5893 21.7823L44.1333 19.1402L41.7857 20.6924C41.5712 20.2683 41.2672 19.8963 40.8948 19.6024L42.018 16.5489L39.9068 16.0781L38.3615 19.0468C37.8012 19.1422 37.2578 19.3194 36.7486 19.5727L36.0814 17.3335L33.5734 19.314L33.7381 21.9435C33.2273 22.5181 32.7642 23.1337 32.3532 23.7841L30.2843 23.6781L28.8318 26.9479L30.6094 27.7113C30.4238 28.3876 30.3064 29.081 30.2589 29.7809L28 31.8675L28.4518 34.5139L30.8036 32.9617C31.0169 33.3854 31.3212 33.7562 31.6945 34.0474L30.5925 37.1052L32.7036 37.5717L34.9161 35.4088C35.427 35.3282 35.3003 34.3612 35.8577 34.0856L36.529 36.3164L39.0328 34.34L38.9695 33.3052C39.4762 32.7369 41.3931 31.4858 41.8068 30.8327L42.3262 29.9845L43.7787 26.7146L43.1031 25.4847L42.3515 23.8816L44.5893 21.7823ZM36.9259 30.4807C35.0005 31.999 34.3925 32.334 34.0674 30.3026C33.7423 28.2711 34.8443 25.1836 36.7697 23.6611C38.695 22.1386 39.4297 22.0325 39.7759 24.0598C40.1222 26.087 38.8555 28.9794 36.9259 30.4807Z" fill="#E0E0E0"/>
<path id="Vector_22" d="M39.9204 16.0859L42.6564 17.6721L41.111 20.6281L38.375 19.0462L39.9204 16.0859Z" fill="#6D9CFF"/>
<path id="Vector_23" d="M46.8688 20.7268L44.5212 22.279L41.7852 20.6971L44.1327 19.1406L46.8688 20.7268Z" fill="#6D9CFF"/>
<path id="Vector_24" d="M46.4902 28.2948L44.7126 27.5315L41.9766 25.9453L43.7541 26.7087L46.4902 28.2948Z" fill="#E0E0E0"/>
<path id="Vector_25" d="M30.5859 37.1082L33.322 38.6944L34.4451 35.6408L31.7091 34.0547L30.5859 37.1082Z" fill="#E0E0E0"/>
<path id="Vector_26" d="M39.2433 37.9029L36.5031 36.3167L35.8359 34.0859L38.572 35.6721L39.2433 37.9029Z" fill="#E0E0E0"/>
<path id="Vector_27" d="M47.326 23.3683L46.8742 20.7261L44.5267 22.2783C44.3106 21.854 44.0051 21.4821 43.6315 21.1884L44.7547 18.1348L42.6646 17.6641L41.1151 20.6328C40.556 20.7275 40.0139 20.9047 39.5064 21.1587L38.8393 18.9279L36.3312 20.9085L36.4959 23.5379C35.9846 24.1166 35.5214 24.7365 35.111 25.3912L33.0378 25.2852L31.5854 28.555L33.363 29.3184C33.1791 29.9966 33.0617 30.6912 33.0125 31.3923L30.7578 33.4492L31.2096 36.0956L33.5572 34.5434C33.7733 34.9664 34.0788 35.337 34.4523 35.6291L33.3292 38.6826L35.4403 39.1534L36.9857 36.1847C37.5469 36.091 38.0908 35.9122 38.5986 35.6545L39.2657 37.8853L41.7737 35.909L41.6091 33.2796C42.1198 32.7049 42.583 32.0893 42.994 31.439L45.0671 31.5407L46.5196 28.2709L44.7167 27.5118C44.9036 26.8341 45.0224 26.1393 45.0713 25.4379L47.326 23.3683ZM39.671 32.0836C37.7499 33.6019 35.909 33.1905 35.5585 31.1633C35.2081 29.1361 36.4874 26.2564 38.4128 24.7381C40.3382 23.2198 42.1749 23.6354 42.5253 25.6627C42.8757 27.6899 41.5964 30.5653 39.671 32.0836Z" fill="#1F67FF"/>
<path id="Vector_28" d="M38.83 18.9221L36.0897 17.3359L33.5859 19.3165L36.322 20.8984L38.83 18.9221Z" fill="#6D9CFF"/>
<path id="Vector_29" d="M33.5859 19.3203L33.7506 21.9455L36.4866 23.5317L36.322 20.9022L33.5859 19.3203Z" fill="#E0E0E0"/>
<path id="Vector_30" d="M35.1061 25.3754L32.37 23.7893L30.2969 23.6875L33.0371 25.2736L35.1061 25.3754Z" fill="#F5F5F5"/>
<path id="Vector_31" d="M30.2962 23.6875L28.8438 26.9573L31.584 28.5435L33.0365 25.2736L30.2962 23.6875Z" fill="#6D9CFF"/>
<path id="Vector_32" d="M33.0106 31.3752L30.2703 29.7891L28.0156 31.8757L30.7517 33.4618L33.0106 31.3752Z" fill="#F5F5F5"/>
<path id="Vector_33" d="M31.2034 36.1033L28.4674 34.5172L28.0156 31.875L30.7517 33.4611L31.2034 36.1033Z" fill="#6D9CFF"/>
<path id="Vector_34" d="M42.6579 17.6721L39.9219 16.0859L42.0119 16.5567L44.7522 18.1428L42.6579 17.6721Z" fill="#F5F5F5"/>
<path id="Vector_35" d="M32.3186 9.79255V5.84415L29.1899 7.26065C29.0242 6.59076 28.738 5.95692 28.3454 5.39036L30.3173 1.39954L27.9105 0L25.4532 3.71515C24.7684 3.65505 24.0784 3.72263 23.418 3.91448L23.0718 0.483478L19.6687 2.4598L19.3267 6.27673C18.586 6.93593 17.905 7.65973 17.2915 8.43966L14.8342 7.59145L12.4275 11.7816L14.395 13.478C14.0315 14.4015 13.7489 15.3551 13.5506 16.328L10.4219 18.5376V22.4902L13.5506 21.0737C13.7163 21.7436 14.0025 22.3775 14.395 22.944L12.4359 26.9391L14.8426 28.3344L17.3 24.6235C17.9848 24.6834 18.6747 24.6158 19.3351 24.4241L19.6771 27.8551L23.0803 25.8788L23.4265 22.0619C24.4887 21.6726 25.4296 21.0084 26.1541 20.1364L27.919 20.7599L30.3257 16.574L28.8479 15.3017C29.1687 14.2407 29.2876 13.1285 29.1983 12.0233L32.3186 9.79255ZM21.3702 19.6572C18.7609 21.1713 17.148 20.0813 17.148 17.0659C17.148 14.0506 19.3055 10.3227 21.9191 8.80863C24.5327 7.29458 26.1119 8.38453 26.1119 11.4254C26.1119 14.4662 23.9838 18.1389 21.3702 19.6572Z" fill="#E0E0E0"/>
<path id="Vector_36" d="M30.6468 1.58615L27.9066 0L25.4492 3.71091L28.1895 5.29706L30.6468 1.58615Z" fill="#6D9CFF"/>
<path id="Vector_37" d="M35.0562 7.4299L32.3201 5.84375L29.1914 7.26026L31.9274 8.8464L35.0562 7.4299Z" fill="#6D9CFF"/>
<path id="Vector_38" d="M22.4026 29.439L19.6665 27.8486L19.3203 24.4219L22.0606 26.008L22.4026 29.439Z" fill="#E0E0E0"/>
<path id="Vector_39" d="M12.4219 26.9404L15.1621 28.5265L17.1339 24.5315L14.3937 22.9453L12.4219 26.9404Z" fill="#E0E0E0"/>
<path id="Vector_40" d="M35.0569 11.3912V7.44281L31.9282 8.84659C31.7642 8.1761 31.4779 7.54194 31.0837 6.9763L33.0555 2.98548L30.6488 1.58594L28.1915 5.30109C27.5067 5.2389 26.8163 5.30652 26.1563 5.50042L25.8101 2.06093L22.4069 4.03726L22.0607 7.85419C21.3211 8.51448 20.6402 9.23819 20.0256 10.0171L17.5682 9.16891L15.1615 13.3591L17.1333 15.0555C16.7678 15.9783 16.4852 16.9321 16.2889 17.9055L13.1602 20.115V24.0677L16.2889 22.6512C16.4528 23.3217 16.7391 23.9559 17.1333 24.5215L15.1615 28.5123L17.5682 29.9076L20.0256 26.1967C20.7104 26.2568 21.4004 26.1892 22.0607 25.9974L22.4069 29.4283L25.8101 27.452L26.1521 23.6351C26.8928 22.9759 27.5738 22.2521 28.1872 21.4722L30.6446 22.3204L33.0513 18.1345L31.0795 16.4381C31.4449 15.5152 31.7275 14.5614 31.924 13.5881L35.0569 11.3912ZM24.1085 21.2559C21.4949 22.7699 19.3754 21.54 19.3754 18.5119C19.3754 15.4838 21.4865 11.7984 24.1085 10.2801C26.7306 8.76177 28.8375 9.99592 28.8375 13.024C28.8375 16.0521 26.7179 19.7164 24.1085 21.2347V21.2559Z" fill="#1F67FF"/>
<path id="Vector_41" d="M17.2855 8.44687L20.0258 10.033L17.5684 9.17209L14.8281 7.58594L17.2855 8.44687Z" fill="#F0F0F0"/>
<path id="Vector_42" d="M14.8331 7.58188L12.4258 11.7734L15.1651 13.3607L17.5725 9.16918L14.8331 7.58188Z" fill="#6D9CFF"/>
<path id="Vector_43" d="M12.4219 11.7734L15.1621 13.3596L17.1339 15.0645L14.3937 13.4783L12.4219 11.7734Z" fill="#E0E0E0"/>
<path id="Vector_44" d="M13.5506 16.3281L16.2866 17.9143L13.1579 20.1281L10.4219 18.5419L13.5506 16.3281Z" fill="#F5F5F5"/>
<path id="Vector_45" d="M10.4219 18.5391L13.1579 20.1252V24.0736L10.4219 22.4875V18.5391Z" fill="#6D9CFF"/>
<path id="Vector_46" d="M25.8114 2.06271L23.0711 0.476562L19.668 2.45289L22.404 4.03903L25.8114 2.06271Z" fill="#6D9CFF"/>
<path id="Vector_47" d="M60.9383 115.32L100.628 92.2997C100.715 92.2688 100.791 92.2114 100.844 92.1354C100.898 92.0595 100.927 91.9687 100.927 91.8756C100.927 91.7825 100.898 91.6917 100.844 91.6157C100.791 91.5397 100.715 91.4823 100.628 91.4515L96.9585 89.3309C96.7313 89.2161 96.4804 89.1563 96.226 89.1562C95.9715 89.1563 95.7207 89.2161 95.4934 89.3309L55.7913 112.33C55.7039 112.361 55.6281 112.418 55.5745 112.494C55.521 112.57 55.4922 112.661 55.4922 112.754C55.4922 112.847 55.521 112.938 55.5745 113.014C55.6281 113.09 55.7039 113.147 55.7913 113.178L59.4731 115.299C59.6988 115.417 59.9488 115.48 60.2032 115.484C60.4576 115.488 60.7094 115.432 60.9383 115.32Z" fill="#0052FE"/>
<path id="Vector_48" d="M99.5381 3.42245L63.7501 24.1781C63.2181 24.5268 62.7754 24.9965 62.4577 25.5491C62.1401 26.1017 61.9565 26.7217 61.9219 27.3589V112.633C61.9219 113.804 62.741 114.279 63.7501 113.694L99.5381 92.938C100.071 92.59 100.514 92.1205 100.832 91.5678C101.15 91.015 101.333 90.3946 101.366 89.7572V4.48271C101.366 3.31218 100.551 2.83718 99.5381 3.42245Z" fill="#455A64"/>
<path id="Vector_49" d="M63.7515 24.1792L99.5395 3.42355C100.443 2.89766 101.19 3.22422 101.342 4.13605C101.258 3.56276 101.054 3.01393 100.743 2.52564C100.432 2.03736 100.022 1.62068 99.5395 1.30303L98.0533 0.454826C97.4867 0.166097 96.8603 0.015625 96.225 0.015625C95.5897 0.015625 94.9633 0.166097 94.3968 0.454826L58.6045 21.1935C58.0654 21.533 57.6209 22.0043 57.3125 22.5634L62.4595 25.5321C62.7678 24.9775 63.2126 24.5117 63.7515 24.1792Z" fill="#37474F"/>
<path id="Vector_50" d="M56.7695 109.647C56.8042 110.284 56.9878 110.904 57.3054 111.456C57.623 112.009 58.0658 112.479 58.5978 112.827L60.0882 113.676C60.6041 113.935 61.1687 114.082 61.7449 114.107C62.3212 114.131 62.8962 114.034 63.4323 113.82C62.5878 114.151 61.9165 113.663 61.9165 112.615V27.3578C61.9376 26.7179 62.1223 26.0943 62.4527 25.5469L57.3058 22.5781C56.98 23.1214 56.7956 23.7384 56.7695 24.3721V109.647Z" fill="#263238"/>
<path id="Vector_51" d="M64.7375 35.5366L98.5706 15.9218C99.1786 15.5741 99.6684 15.8582 99.6684 16.558V79.6731C99.6481 80.0556 99.5381 80.4279 99.3473 80.7596C99.1565 81.0912 98.8904 81.3729 98.5706 81.5816L64.7501 101.196C64.1421 101.548 63.6523 101.264 63.6523 100.56V37.4451C63.6716 37.0638 63.7798 36.6924 63.9683 36.3609C64.1568 36.0293 64.4203 35.747 64.7375 35.5366Z" fill="white"/>
<path id="Vector_52" d="M81.6496 17.0323C81.4629 17.1555 81.3075 17.3209 81.196 17.5154C81.0845 17.7099 81.0201 17.9279 81.0078 18.152C81.0078 18.5761 81.2949 18.733 81.6496 18.5252C81.8371 18.4028 81.993 18.2375 82.1045 18.0429C82.2161 17.8482 82.2801 17.6298 82.2914 17.4055C82.2914 16.9942 82.0043 16.8288 81.6496 17.0323Z" fill="#37474F"/>
<path id="Vector_53" d="M81.6466 94.4111C80.9085 94.8961 80.2945 95.5489 79.8544 96.3167C79.4143 97.0844 79.1604 97.9456 79.1133 98.8302C79.1133 100.455 80.2491 101.116 81.6466 100.302C82.3845 99.8166 82.9983 99.1637 83.4384 98.396C83.8786 97.6283 84.1326 96.7673 84.18 95.8827C84.1885 94.2584 83.0484 93.5968 81.6466 94.4111Z" fill="#37474F"/>
<path id="Vector_54" d="M75.5714 23.5978C75.2003 23.8452 74.8923 24.1768 74.6723 24.5657C74.4523 24.9547 74.3263 25.3902 74.3047 25.837C74.3047 26.6598 74.8789 26.9948 75.5714 26.5835C75.9464 26.3384 76.2585 26.0078 76.4822 25.6187C76.706 25.2296 76.8352 24.7929 76.8592 24.3442C76.8592 23.5214 76.2849 23.1864 75.5714 23.5978Z" fill="#37474F"/>
<path id="Vector_55" d="M78.7266 23.3199C78.7266 23.8712 79.1488 24.0791 79.6428 23.7864L88.0874 18.8795C88.3489 18.7154 88.5683 18.4916 88.7275 18.2263C88.8867 17.961 88.9813 17.6617 89.0036 17.3528C89.0036 16.8057 88.5814 16.5979 88.0874 16.8905L79.6428 21.7974C79.3818 21.961 79.1628 22.1842 79.0036 22.4487C78.8444 22.7132 78.7495 23.0117 78.7266 23.3199Z" fill="#37474F"/>
<path id="Vector_56" d="M59.6237 38.2721C59.9233 38.4681 60.1727 38.7323 60.3517 39.0433C60.5307 39.3542 60.6342 39.7032 60.6539 40.0618C60.6539 40.7234 60.1937 40.9906 59.6237 40.6598C59.325 40.463 59.0766 40.1986 58.8984 39.8877C58.7202 39.5768 58.6172 39.2283 58.5977 38.8701C58.5977 38.2127 59.0579 37.9455 59.6237 38.2721Z" fill="#37474F"/>
<path id="Vector_57" d="M59.6237 46.2356C59.9233 46.4317 60.1727 46.6959 60.3517 47.0068C60.5307 47.3178 60.6342 47.6667 60.6539 48.0254C60.6539 48.6827 60.1937 48.9499 59.6237 48.6233C59.325 48.4266 59.0766 48.1621 58.8984 47.8512C58.7202 47.5404 58.6172 47.1918 58.5977 46.8336C58.5977 46.172 59.0579 45.9048 59.6237 46.2356Z" fill="#37474F"/>
<path id="Vector_58" d="M59.2998 38.4332C59.5994 38.6292 59.8488 38.8934 60.0278 39.2044C60.2068 39.5153 60.3103 39.8643 60.33 40.2229C60.33 40.8803 59.8698 41.1475 59.2998 40.8209C59.0001 40.6248 58.7507 40.3606 58.5717 40.0497C58.3927 39.7388 58.2892 39.3898 58.2695 39.0312C58.2738 38.3696 58.734 38.1151 59.2998 38.4332Z" fill="#455A64"/>
<path id="Vector_59" d="M59.2998 46.3893C59.6 46.5857 59.8497 46.8506 60.0288 47.1623C60.2078 47.4741 60.311 47.8239 60.33 48.1832C60.33 48.8406 59.8698 49.1078 59.2998 48.777C58.9994 48.5817 58.7495 48.3177 58.5704 48.0066C58.3913 47.6955 58.2882 47.3461 58.2695 46.9873C58.2738 46.3299 58.734 46.0627 59.2998 46.3893Z" fill="#455A64"/>
<path id="Vector_60" d="M106.516 18.5606C106.516 17.8566 106.026 17.5725 105.418 17.9245L101.369 20.2698L71.5978 37.5393C71.278 37.748 71.0119 38.0296 70.8211 38.3613C70.6303 38.693 70.5203 39.0652 70.5 39.4477V102.546C70.5 103.25 70.9898 103.534 71.5978 103.182L101.382 85.9083L105.418 83.5672C105.738 83.3585 106.004 83.0769 106.195 82.7452C106.386 82.4135 106.496 82.0413 106.516 81.6588V18.5606Z" fill="white" stroke="#27DEBF" stroke-miterlimit="10"/>
<path id="Vector_61" d="M71.122 103.545C70.9728 103.547 70.8262 103.506 70.6997 103.427C70.5559 103.328 70.4409 103.193 70.3666 103.035C70.2924 102.877 70.2616 102.702 70.2775 102.527V39.4463C70.2968 39.0265 70.4162 38.6175 70.6256 38.2536C70.835 37.8898 71.1283 37.5818 71.4809 37.3554L101.252 20.0859L101.463 20.4549L71.692 37.7202C71.4049 37.9112 71.1659 38.1665 70.9937 38.466C70.8215 38.7655 70.7209 39.1011 70.6997 39.4463V102.544C70.6705 102.645 70.6756 102.752 70.7143 102.849C70.753 102.946 70.8229 103.027 70.9129 103.079C71.003 103.132 71.1079 103.152 71.2109 103.137C71.3138 103.123 71.4089 103.074 71.4809 102.998L101.265 85.7245L101.476 86.0934L71.692 103.367C71.5197 103.473 71.3237 103.534 71.122 103.545Z" fill="#0C7CEC" stroke="#0C7CEC" stroke-miterlimit="10"/>
<path id="Vector_62" d="M101.485 86.0949L101.274 85.726L105.311 83.3849C105.598 83.1939 105.837 82.9386 106.009 82.6391C106.181 82.3396 106.282 82.004 106.303 81.6588V18.5606C106.332 18.4604 106.327 18.3532 106.289 18.2562C106.25 18.1592 106.18 18.0781 106.09 18.0258C106 17.9734 105.895 17.953 105.792 17.9677C105.689 17.9824 105.594 18.0314 105.522 18.1069L101.473 20.4564L101.262 20.0874L105.324 17.7591C105.461 17.647 105.629 17.5795 105.805 17.5653C105.981 17.5511 106.158 17.591 106.311 17.6797C106.464 17.7684 106.587 17.9017 106.663 18.062C106.74 18.2223 106.766 18.4021 106.738 18.5776V81.6588C106.718 82.0791 106.599 82.4886 106.389 82.853C106.18 83.2175 105.887 83.5264 105.535 83.7539L101.485 86.0949Z" fill="#27DEBF" stroke="#0C7CEC" stroke-miterlimit="10"/>
<path id="Vector_63" d="M88.5057 33.2236C92.3058 31.0267 95.3669 32.7995 95.3669 37.2059C95.3669 41.6123 92.2931 46.9603 88.5057 49.1402C84.7184 51.3201 81.6445 49.5643 81.6445 45.1621C81.6445 40.7599 84.7184 35.4247 88.5057 33.2236Z" fill="#D0F3FF"/>
<path id="Vector_64" d="M88.5064 36.6808C89.7351 35.9683 90.7315 36.5451 90.7315 37.9531C90.6898 38.7287 90.4666 39.4836 90.0799 40.1564C89.6933 40.8291 89.1542 41.4009 88.5064 41.8251C87.2777 42.5376 86.2812 41.9609 86.2812 40.5528C86.323 39.7772 86.5462 39.0223 86.9329 38.3495C87.3195 37.6768 87.8586 37.105 88.5064 36.6808Z" fill="#27DEBF"/>
<path id="Vector_65" d="M92.8453 44.2779C92.8453 41.9369 91.2113 40.9869 89.1888 42.1574L87.9221 42.8911C85.9039 44.0616 84.2656 46.9116 84.2656 49.2527V49.8846C85.4352 50.2705 86.9045 50.0627 88.4879 49.1339C90.2419 48.0472 91.7252 46.5718 92.8242 44.8208L92.8453 44.2779Z" fill="#27DEBF"/>
<path id="Vector_66" opacity="0.7" d="M88.5064 36.6808C89.7351 35.9683 90.7315 36.5451 90.7315 37.9531C90.6898 38.7287 90.4666 39.4836 90.0799 40.1564C89.6933 40.8291 89.1542 41.4009 88.5064 41.8251C87.2777 42.5376 86.2812 41.9609 86.2812 40.5528C86.323 39.7772 86.5462 39.0223 86.9329 38.3495C87.3195 37.6768 87.8586 37.105 88.5064 36.6808Z" fill="#0052FE"/>
<path id="Vector_67" opacity="0.7" d="M92.8453 44.2779C92.8453 41.9369 91.2113 40.9869 89.1888 42.1574L87.9221 42.8911C85.9039 44.0616 84.2656 46.9116 84.2656 49.2527V49.8846C85.4352 50.2705 86.9045 50.0627 88.4879 49.1339C90.2419 48.0472 91.7252 46.5718 92.8242 44.8208L92.8453 44.2779Z" fill="#0052FE"/>
<path id="Vector_68" d="M75.2305 58.8286L84.0592 53.7097C84.4815 53.4764 84.7897 53.663 84.7897 54.1338V54.4264C84.7763 54.6813 84.7032 54.9294 84.5763 55.1505C84.4493 55.3716 84.2722 55.5594 84.0592 55.6987L75.2305 60.8177C74.8293 61.0509 74.5 60.8601 74.5 60.3936V60.1009C74.5137 59.8461 74.587 59.5982 74.7139 59.3771C74.8408 59.1561 75.0178 58.9682 75.2305 58.8286Z" fill="#27DEBF"/>
<path id="Vector_69" d="M75.2305 58.8286L84.0592 53.7097C84.4815 53.4764 84.7897 53.663 84.7897 54.1338V54.4264C84.7763 54.6813 84.7032 54.9294 84.5763 55.1505C84.4493 55.3716 84.2722 55.5594 84.0592 55.6987L75.2305 60.8177C74.8293 61.0509 74.5 60.8601 74.5 60.3936V60.1009C74.5137 59.8461 74.587 59.5982 74.7139 59.3771C74.8408 59.1561 75.0178 58.9682 75.2305 58.8286Z" fill="#D0F3FF"/>
<path id="Vector_70" d="M74.8673 65.0085L101.577 49.5202C101.776 49.4015 101.941 49.4948 101.941 49.7323V52.8622C101.933 52.9892 101.897 53.1127 101.833 53.2231C101.77 53.3335 101.683 53.4277 101.577 53.4983L74.8673 68.9866C74.6647 69.1053 74.5 69.0078 74.5 68.7745V65.6446C74.5073 65.5171 74.5443 65.3931 74.6081 65.2825C74.6719 65.172 74.7607 65.0782 74.8673 65.0085Z" fill="#D0F3FF"/>
<path id="Vector_71" d="M75.2305 72.7497L84.0592 67.6308C84.4815 67.3975 84.7897 67.5884 84.7897 68.0549V68.3475C84.7767 68.6025 84.7037 68.8507 84.5767 69.0719C84.4497 69.293 84.2724 69.4808 84.0592 69.6198L75.2305 74.7388C74.8293 74.9763 74.5 74.7854 74.5 74.3147V74.022C74.5144 73.7674 74.5879 73.5197 74.7148 73.2987C74.8416 73.0778 75.0182 72.8898 75.2305 72.7497Z" fill="#27DEBF"/>
<path id="Vector_72" d="M75.2305 72.7497L84.0592 67.6308C84.4815 67.3975 84.7897 67.5884 84.7897 68.0549V68.3475C84.7767 68.6025 84.7037 68.8507 84.5767 69.0719C84.4497 69.293 84.2724 69.4808 84.0592 69.6198L75.2305 74.7388C74.8293 74.9763 74.5 74.7854 74.5 74.3147V74.022C74.5144 73.7674 74.5879 73.5197 74.7148 73.2987C74.8416 73.0778 75.0182 72.8898 75.2305 72.7497Z" fill="#D0F3FF"/>
<path id="Vector_73" d="M74.8673 78.9296L101.577 63.4413C101.776 63.3226 101.941 63.4201 101.941 63.6534V66.7833C101.933 66.9103 101.897 67.0338 101.833 67.1442C101.77 67.2546 101.683 67.3488 101.577 67.4194L74.8673 82.9077C74.6647 83.0264 74.5 82.9331 74.5 82.6956V79.5658C74.5073 79.4382 74.5443 79.3142 74.6081 79.2037C74.6719 79.0931 74.7607 78.9993 74.8673 78.9296Z" fill="#27DEBF"/>
<path id="Vector_74" d="M74.8673 78.9296L101.577 63.4413C101.776 63.3226 101.941 63.4201 101.941 63.6534V66.7833C101.933 66.9103 101.897 67.0338 101.833 67.1442C101.77 67.2546 101.683 67.3488 101.577 67.4194L74.8673 82.9077C74.6647 83.0264 74.5 82.9331 74.5 82.6956V79.5658C74.5073 79.4382 74.5443 79.3142 74.6081 79.2037C74.6719 79.0931 74.7607 78.9993 74.8673 78.9296Z" fill="#D0F3FF"/>
<path id="Vector_75" d="M85.5234 80.7057L96.0791 74.5944C96.5014 74.3569 96.8138 74.5477 96.8138 75.0185V78.2925C96.8 78.5478 96.7262 78.7962 96.5985 79.0173C96.4708 79.2384 96.2928 79.426 96.0791 79.5649L85.5234 85.6804C85.1012 85.9137 84.793 85.7229 84.793 85.2563V81.978C84.8077 81.7234 84.8813 81.4759 85.0082 81.255C85.135 81.0341 85.3114 80.846 85.5234 80.7057Z" fill="#27DEBF"/>
<path id="Vector_76" d="M85.5234 80.7057L96.0791 74.5944C96.5014 74.3569 96.8138 74.5477 96.8138 75.0185V78.2925C96.8 78.5478 96.7262 78.7962 96.5985 79.0173C96.4708 79.2384 96.2928 79.426 96.0791 79.5649L85.5234 85.6804C85.1012 85.9137 84.793 85.7229 84.793 85.2563V81.978C84.8077 81.7234 84.8813 81.4759 85.0082 81.255C85.135 81.0341 85.3114 80.846 85.5234 80.7057Z" fill="#D0F3FF"/>
<path id="Vector_77" d="M110.518 66.8879C110.518 66.8879 105.333 59.7035 105.029 58.8299C104.788 58.1853 105.029 57.2268 105.105 56.7815C105.181 56.3362 105.248 55.3438 105.324 55.0851C105.451 54.6016 104.83 54.6991 104.48 55.1402C104.129 55.5813 104.011 56.4634 103.83 56.6076C103.648 56.7518 102.267 54.7288 101.545 53.7958C100.823 52.8627 100.371 52.2945 99.9281 52.6422C99.6115 52.8924 99.8479 53.4353 100.371 54.2326C100.677 54.6619 100.959 55.1079 101.216 55.5685C101.296 55.7424 100.865 55.7551 100.633 56.1156C100.452 56.3955 100.633 56.8493 100.38 57.0656C100.224 57.1848 100.117 57.3574 100.08 57.5506C100.042 57.7438 100.077 57.944 100.177 58.1132C100.647 58.8545 101.253 59.4993 101.963 60.0131C102.74 60.5518 103.053 60.7426 103.513 61.4763C103.973 62.21 108.102 69.7039 108.381 70.1535C108.66 70.603 109.196 71.5191 110.011 71.5445C110.826 71.57 117.497 65.8022 117.839 65.5138C118.937 64.5935 119.287 64.4577 119.473 65.289C119.537 65.583 119.585 65.8803 119.617 66.1796C119.748 67.2314 120.461 70.9889 120.461 70.9889C120.461 70.9889 123.839 72.6302 126.613 71.8372C129.387 71.0441 130.324 69.8608 130.324 69.8608L128.935 67.5876C129.311 66.6504 131.046 62.8504 131.608 60.1913L122.91 58.779C122.733 58.7408 122.446 58.6687 122.066 58.5712C121.588 58.444 120.377 58.0241 119.46 58.8299C116.471 61.4466 110.526 66.8879 110.526 66.8879" fill="#FFA8A7"/>
<path id="Vector_78" d="M127.761 110.966L126.203 113.142C126.911 113.474 127.685 113.641 128.466 113.63C129.864 113.681 130.248 113.206 130.299 113.112C130.535 112.603 130.168 111.687 130.067 110.898L127.761 110.966Z" fill="#37474F"/>
<path id="Vector_79" d="M126.293 112.099C126.293 112.099 124.401 111.976 123.096 111.815C121.792 111.653 120.757 112.289 121.061 112.828C121.365 113.367 122.087 113.816 123.21 114.194C124.169 114.52 125.322 114.754 126.318 115.042C127.314 115.33 128.007 115.708 128.585 115.504C129.231 115.279 129.51 115.021 129.455 114.546C129.314 113.87 129.139 113.202 128.932 112.544L126.293 112.099Z" fill="#37474F"/>
<path id="Vector_80" d="M130.3 108.788C130.3 108.788 130.063 110.764 130.046 111.188C130.03 111.612 128.125 111.748 127.762 110.972L127.703 108.555L130.3 108.788Z" fill="#F28F8F"/>
<path id="Vector_81" d="M128.38 110L129.06 113.003C129.06 113.003 129.123 113.367 127.569 113.601C126.016 113.834 123.575 112.782 123.157 112.57C122.739 112.358 122.693 111.93 124.221 112.014C125.75 112.099 126.29 112.104 126.29 112.104L125.792 110.776L128.38 110Z" fill="#FFA8A7"/>
<path id="Vector_82" d="M131.582 60.1683L132.659 59.8672C132.659 59.8672 134.909 67.0218 135.159 67.7131C135.408 68.4044 135.691 69.1339 135.205 69.9863C134.627 70.9999 131.582 75.0755 131.582 75.0755L129.648 73.1756L131.844 69.1381L129.902 65.1939L131.582 60.1683Z" fill="#F28F8F"/>
<path id="Vector_83" d="M120.525 50.8772C120.273 50.4012 120.145 49.8688 120.153 49.3296C120.161 48.7904 120.305 48.262 120.572 47.794C121.644 45.7964 124.034 44.8252 126.88 45.1942C128.197 45.3681 129.751 46.4665 130.599 48.1078C131.537 49.9272 131.625 53.5915 131.866 54.9783L120.525 50.8772Z" fill="#37474F"/>
<path id="Vector_84" d="M120.45 51.6562C120.45 51.6562 119.775 52.9498 119.893 53.0685C120.068 53.1712 120.259 53.243 120.459 53.2806L120.45 51.6562Z" fill="#FFA8A7"/>
<path id="Vector_85" d="M122.503 47.5732C121.769 48.0524 120.502 48.9346 120.447 51.8397C120.388 54.8084 120.81 55.7881 121.249 56.1316C121.545 56.3649 123.28 56.2461 124.023 56.0722C124.766 55.8984 126.907 54.8339 127.68 53.218C128.588 51.318 128.402 48.5529 127.055 47.7047C126.369 47.2975 125.592 47.0718 124.796 47.0488C124 47.0258 123.211 47.2063 122.503 47.5732Z" fill="#FFA8A7"/>
<path id="Vector_86" d="M130.296 69.8438C131.597 71.8794 132.83 73.6607 133.1 75.9593C133.657 80.7899 131.833 86.3117 131.441 89.8869C132.179 90.9038 132.605 92.1158 132.665 93.373C132.665 94.8531 130.296 108.785 130.296 108.785C130.296 108.785 128.574 109.311 127.7 108.552L126.074 82.9231L126.919 79.8017L130.296 69.8438Z" fill="#27DEBF"/>
<path id="Vector_87" opacity="0.2" d="M130.296 69.8438C131.597 71.8794 132.83 73.6607 133.1 75.9593C133.657 80.7899 131.833 86.3117 131.441 89.8869C132.179 90.9038 132.605 92.1158 132.665 93.373C132.665 94.8531 130.296 108.785 130.296 108.785C130.296 108.785 128.574 109.311 127.7 108.552L126.074 82.9231L126.919 79.8017L130.296 69.8438Z" fill="black"/>
<path id="Vector_88" d="M126.074 82.9279L126.919 79.8065C128.536 79.3789 130.095 78.7566 131.563 77.9531C131.563 77.9531 130.685 79.5605 128.16 80.4426L126.855 84.4504L126.746 93.6322L126.074 82.9279Z" fill="#27DEBF"/>
<path id="Vector_89" opacity="0.3" d="M126.074 82.9279L126.919 79.8065C128.536 79.3789 130.095 78.7566 131.563 77.9531C131.563 77.9531 130.685 79.5605 128.16 80.4426L126.855 84.4504L126.746 93.6322L126.074 82.9279Z" fill="black"/>
<path id="Vector_90" d="M130.302 69.8438C130.999 70.9888 132.663 72.9397 132.308 74.8185C131.886 77.0917 130.661 78.6905 126.937 79.8017L123.441 92.5248C123.441 92.5248 125.261 94.2212 125.818 95.8625C126.376 97.5038 128.385 110.006 128.385 110.006C128.385 110.006 127.761 111.028 125.797 110.782C125.797 110.782 118.953 95.0906 118.472 94.0686C117.887 93.0335 117.683 91.8255 117.893 90.6545C118.108 89.009 120.426 70.9973 120.426 70.9973L130.302 69.8438Z" fill="#27DEBF"/>
<path id="Vector_91" opacity="0.2" d="M130.302 69.8438C130.999 70.9888 132.663 72.9397 132.308 74.8185C131.886 77.0917 130.661 78.6905 126.937 79.8017L123.441 92.5248C123.441 92.5248 125.261 94.2212 125.818 95.8625C126.376 97.5038 128.385 110.006 128.385 110.006C128.385 110.006 127.761 111.028 125.797 110.782C125.797 110.782 118.953 95.0906 118.472 94.0686C117.887 93.0335 117.683 91.8255 117.893 90.6545C118.108 89.009 120.426 70.9973 120.426 70.9973L130.302 69.8438Z" fill="black"/>
<path id="Vector_92" d="M131.581 60.167L122.883 58.7547C122.706 58.7165 122.419 58.6444 122.039 58.5469C122.039 58.5469 121.667 64.0263 119.434 65.2816C119.488 65.5446 119.535 65.8372 119.577 66.1723C119.708 67.224 120.422 70.9816 120.422 70.9816C120.422 70.9816 123.799 72.6229 126.573 71.8298C129.347 71.0367 130.285 69.8535 130.285 69.8535L128.896 67.5803C129.284 66.6345 131.032 62.8346 131.581 60.167Z" fill="#27DEBF"/>
<path id="Vector_93" d="M131.581 60.167L122.883 58.7547C122.706 58.7165 122.419 58.6444 122.039 58.5469C122.039 58.5469 121.667 64.0263 119.434 65.2816C119.488 65.5446 119.535 65.8372 119.577 66.1723C119.708 67.224 120.422 70.9816 120.422 70.9816C120.422 70.9816 123.799 72.6229 126.573 71.8298C129.347 71.0367 130.285 69.8535 130.285 69.8535L128.896 67.5803C129.284 66.6345 131.032 62.8346 131.581 60.167Z" fill="#FFBE02"/>
<path id="Vector_94" d="M129.29 66.6797C128.135 67.3764 126.925 67.9764 125.672 68.4736C126.809 68.4508 127.923 68.1417 128.91 67.5745L129.29 66.6797Z" fill="#D3A10E"/>
<path id="Vector_95" d="M122.284 47.7156C122.284 47.7156 121.862 50.4722 122.858 52.0923C122.858 52.0923 123.23 50.9939 124.155 51.2017C125.079 51.4095 125.13 52.6352 124.48 53.3222C124.314 53.5153 124.097 53.6575 123.854 53.7325C123.612 53.8075 123.353 53.8123 123.107 53.7463C123.107 53.7463 122.964 55.7396 122.884 57.4106C122.803 59.0815 122.364 62.7246 124.235 64.1962C126.105 65.6679 130.8 66.1853 133 63.0978C134.225 61.3802 132.599 58.3436 131.843 54.938C131.147 51.8082 130.754 47.1685 127.448 46.422C124.142 45.6756 122.284 47.7156 122.284 47.7156Z" fill="#37474F"/>
<path id="Vector_96" d="M134.417 10.0539L133.721 10.478C133.779 10.2291 133.812 9.97465 133.818 9.7189C133.818 8.29815 132.826 7.72561 131.601 8.44659C131.228 8.67236 130.896 8.95904 130.617 9.2948C130.617 7.38633 129.283 6.61022 127.636 7.56445C126.769 8.13287 126.047 8.89873 125.529 9.79991C125.011 10.7011 124.712 11.7122 124.655 12.7512C124.655 12.8488 124.655 12.9421 124.655 13.0354C124.231 12.9818 123.802 13.081 123.444 13.3153C122.798 13.7376 122.261 14.3068 121.876 14.9766C121.491 15.6464 121.269 16.398 121.227 17.1704C121.227 17.35 121.245 17.529 121.282 17.7048L120.91 17.9211C119.901 18.5063 119.082 19.6472 119.082 20.4657C119.082 21.2842 119.901 21.4793 120.91 20.8898L134.422 13.0651C135.431 12.4798 136.25 11.339 136.25 10.5205C136.25 9.70194 135.426 9.46444 134.417 10.0539Z" fill="#1F67FF"/>
</g>
<defs>
<linearGradient id="paint0_linear_2800_1518" x1="19.357" y1="106.744" x2="29.3795" y2="106.744" gradientUnits="userSpaceOnUse">
<stop stop-color="#02CDFF"/>
<stop offset="0.494791" stop-color="#03C0FF"/>
<stop offset="1" stop-color="#005AFD"/>
</linearGradient>
<linearGradient id="paint1_linear_2800_1518" x1="10.4141" y1="107.616" x2="22.6874" y2="107.616" gradientUnits="userSpaceOnUse">
<stop stop-color="#FFCE00"/>
<stop offset="1" stop-color="#FFB003"/>
</linearGradient>
<linearGradient id="paint2_linear_2800_1518" x1="100.652" y1="81.9495" x2="112.377" y2="81.9495" gradientUnits="userSpaceOnUse">
<stop stop-color="#FFCE00"/>
<stop offset="1" stop-color="#FFB003"/>
</linearGradient>
<linearGradient id="paint3_linear_2800_1518" x1="40.8489" y1="74.0728" x2="59.259" y2="74.0728" gradientUnits="userSpaceOnUse">
<stop stop-color="#02CDFF"/>
<stop offset="0.494791" stop-color="#03C0FF"/>
<stop offset="1" stop-color="#005AFD"/>
</linearGradient>
<linearGradient id="paint4_linear_2800_1518" x1="31.7109" y1="90.7804" x2="56.77" y2="90.7804" gradientUnits="userSpaceOnUse">
<stop stop-color="#FFCE00"/>
<stop offset="1" stop-color="#FFB003"/>
</linearGradient>
<clipPath id="clip0_2800_1518">
<rect width="149" height="139" fill="white"/>
</clipPath>
</defs>
</svg>
