<svg width="96" height="21" viewBox="0 0 96 21" fill="none" xmlns="http://www.w3.org/2000/svg">
<g id="Group 27340">
<g id="Group">
<path id="Vector" d="M10.3802 10.0675L19.2748 0.537354H14.5447L5.09816 10.4603V0.537354H0.847656V20.2692H5.09816V15.617L7.58131 13.0398L13.4964 20.2692H18.4876L10.9819 10.825L10.3802 10.0667V10.0675Z" fill="#0052FE"/>
<path id="Vector_2" d="M32.9822 9.30681C31.6599 7.20927 29.2338 5.91187 26.2759 5.91187C23.1147 5.91187 20.548 7.39484 19.2964 9.74463C18.7558 10.7512 18.4609 11.9201 18.4609 13.1966C18.4609 17.456 21.7595 20.4814 26.2759 20.4814C30.7923 20.4814 34.066 17.456 34.066 13.1966C34.066 11.7289 33.6763 10.4066 32.9822 9.30681ZM26.2759 17.1145C24.2161 17.1145 22.6311 15.642 22.6311 13.1966C22.6311 11.0935 23.8008 9.71009 25.4388 9.36465C25.7063 9.30601 25.9867 9.27709 26.2759 9.27709C26.4791 9.27709 26.6744 9.28994 26.8664 9.32127C28.6249 9.57513 29.8934 10.9898 29.8934 13.1966C29.8934 15.642 28.3365 17.1145 26.2767 17.1145H26.2759Z" fill="#0052FE"/>
<path id="Vector_3" d="M40.9303 6.12207H36.8115V20.2698H40.9303V6.12207Z" fill="#0052FE"/>
<path id="Vector_4" d="M53.3951 5.91187C51.4671 5.91187 49.8034 6.57061 48.6947 7.77884V6.12234H44.7607V20.2701H48.8787V13.2745C48.8787 12.2463 49.1004 11.4357 49.4949 10.834C50.0926 9.90611 51.0887 9.46346 52.2865 9.46346C53.9052 9.46346 54.9191 10.2933 55.1247 12.0808C55.1512 12.3041 55.1641 12.5467 55.1641 12.8022V20.2693H57.4327L59.2853 17.697V12.1723C59.2853 7.85757 56.7491 5.91187 53.3951 5.91187Z" fill="#0052FE"/>
</g>
<g id="Group_2">
<path id="Vector_5" d="M80.6958 0.469971L60.4893 20.2701H66.7787L68.6247 17.6455L79.0803 2.76915L80.6958 0.469971Z" fill="url(#paint0_linear_3206_31)"/>
<path id="Vector_6" d="M74.7398 0.469971L74.0939 1.36811L63.9533 15.4556L60.4893 20.2701L80.6958 0.469971H74.7398Z" fill="url(#paint1_linear_3206_31)"/>
<path id="Vector_7" d="M78.6955 16.8124L78.4344 16.4428C78.2167 16.1343 77.8624 15.9512 77.4864 15.9512H72.733C72.5571 15.9512 72.4205 16.0556 72.3555 16.1946L81.1417 20.27L78.6955 16.8124Z" fill="#F69300"/>
<path id="Vector_8" d="M72.3552 16.1948C72.2973 16.3185 72.2965 16.4696 72.3825 16.6013L73.3586 18.0867H73.361L74.7966 20.2702H81.1422L72.356 16.1948H72.3552Z" fill="url(#paint2_linear_3206_31)"/>
<path id="Vector_9" d="M69.4982 4.13477L67.9935 1.92556L67.0022 0.470703H60.7939L69.401 4.70515C69.5697 4.57902 69.6332 4.3332 69.499 4.13477H69.4982Z" fill="url(#paint3_linear_3206_31)"/>
<path id="Vector_10" d="M60.7939 0.47004L63.4426 4.28835C63.4538 4.30361 63.4643 4.31647 63.4755 4.33173C63.6948 4.61853 64.0346 4.78803 64.3978 4.78803H69.1536C69.2508 4.78803 69.3335 4.75429 69.4018 4.70368L60.7947 0.469238L60.7939 0.47004Z" fill="#F69300"/>
</g>
<path id="Vector_11" d="M89.4298 1.22611H87.7573V5.61238H86.6271V1.22611H84.9775V0.390625H89.4298V1.22611ZM91.5417 0.390625L92.9459 4.16189L94.3444 0.390625H95.8227V5.61238H94.6811V4.16189L94.8067 1.69026L93.3283 5.61238H92.5578L91.0851 1.69606L91.1993 4.16189V5.61238H90.0748V0.390625H91.5417Z" fill="black"/>
</g>
<defs>
<linearGradient id="paint0_linear_3206_31" x1="76.1561" y1="5.78331" x2="68.3275" y2="14.8402" gradientUnits="userSpaceOnUse">
<stop stop-color="#FFAC00"/>
<stop offset="1" stop-color="#FE7801"/>
</linearGradient>
<linearGradient id="paint1_linear_3206_31" x1="60.4893" y1="10.3704" x2="80.6958" y2="10.3704" gradientUnits="userSpaceOnUse">
<stop stop-color="#FFCE00"/>
<stop offset="1" stop-color="#FFB003"/>
</linearGradient>
<linearGradient id="paint2_linear_3206_31" x1="72.3142" y1="18.2329" x2="81.1414" y2="18.2329" gradientUnits="userSpaceOnUse">
<stop stop-color="#FE8B01"/>
<stop offset="1" stop-color="#FE7801"/>
</linearGradient>
<linearGradient id="paint3_linear_3206_31" x1="60.7931" y1="2.58752" x2="69.5713" y2="2.58752" gradientUnits="userSpaceOnUse">
<stop stop-color="#FFCE00"/>
<stop offset="1" stop-color="#FFC101"/>
</linearGradient>
</defs>
</svg>
